<!--?xml version="1.0" encoding="utf-8"?-->
<!-- Generator: Adobe Illustrator 18.1.1, SVG Export Plug-In . SVG Version: 6.00 Build 0)  -->

<svg version="1.1" id="_x32_" width="256ox" height="256px" xmlns="http://www.w3.org/2000/svg" xmlns:xlink="http://www.w3.org/1999/xlink" x="0px" y="0px" viewBox="0 0 512 512" style="width: 256px; height: 256px; opacity: 1;" xml:space="preserve">
<style type="text/css">
	.st0{fill:#4B4B4B;}
</style>
<g>
	<path class="st0" d="M505.566,124.893c-7.212-13.792-19.346-25.317-34.796-35.364C447.557,74.51,416.4,62.683,379.72,54.359
		C343.071,46.057,300.917,41.371,256,41.363c-68.439,0.032-130.412,10.826-176.45,28.923c-23.034,9.098-42.138,19.982-56.206,33.034
		c-7.034,6.546-12.8,13.694-16.894,21.572C2.339,132.747,0,141.421,0,150.332v13.394h0.503c0.878,13.475,3.071,29.2,6.937,46.354
		c7.879,34.78,22.629,75.278,47.922,112.714c23.864,35.332,57.328,67.927,102.846,89.354v37.704l6.985,3.801
		c1.608,0.902,32.083,17,90.824,16.984c58.741,0.016,89.216-16.082,90.841-16.984l6.986-3.801v-37.761
		c29.402-13.873,53.899-32.359,73.881-53.282c32.732-34.269,53.688-74.782,66.57-112.365c12.85-37.655,17.69-72.289,17.707-96.112
		C512.016,141.421,509.66,132.747,505.566,124.893z M478.455,204.175c-7.23,32.116-21.004,69.657-43.974,103.617
		c-23.003,34-54.972,64.394-99.304,83.408l-8.122,3.476v38.394c-10.9,4.036-34.472,10.762-71.039,10.778
		c-26.917,0-46.8-3.664-59.78-7.204c-4.646-1.268-8.365-2.51-11.241-3.574v-38.394l-8.122-3.476
		c-29.581-12.687-53.591-30.41-73.182-50.894c-29.387-30.719-48.718-67.782-60.593-102.544c-11.907-34.69-16.309-67.18-16.277-87.43
		v-0.324c0.065-4.175,1.089-8.293,3.395-12.769c4.094-7.976,12.67-16.886,25.601-25.228c19.315-12.573,47.938-23.75,82.394-31.531
		c34.455-7.806,74.774-12.329,117.79-12.321c65.547-0.033,124.873,10.559,166.654,27.056c20.875,8.195,37.282,17.91,47.76,27.713
		c5.263,4.898,9.016,9.747,11.387,14.312c2.356,4.59,3.412,8.805,3.412,13.093C485.228,163.807,483.295,182.805,478.455,204.175z" style="fill: rgb(75, 75, 75);"></path>
	<path class="st0" d="M420.59,126.225c-18.048-10.153-42.463-18.243-71.346-23.953c-28.85-5.678-62.103-8.902-97.549-8.902
		c-54.03,0.016-102.926,7.448-139.006,19.786c-18.048,6.205-32.912,13.58-43.796,22.369c-5.426,4.402-9.877,9.194-13.077,14.53
		c-3.184,5.312-5.068,11.274-5.052,17.439c-0.016,6.165,1.868,12.118,5.052,17.439c5.621,9.333,14.962,17.016,26.966,23.831
		c18.048,10.145,42.48,18.235,71.346,23.937c28.851,5.685,62.12,8.91,97.566,8.91c54.013-0.016,102.926-7.448,138.989-19.794
		c18.049-6.198,32.912-13.573,43.796-22.361c5.426-4.402,9.877-9.186,13.076-14.523c3.184-5.321,5.069-11.274,5.053-17.439
		c0.016-6.165-1.869-12.127-5.053-17.439C441.937,140.724,432.612,133.023,420.59,126.225z M251.695,109.444
		c51.008-0.016,97.29,6.936,130.818,17.95c-10.575-0.796-20.988-1.153-31.027-1.153c-48.88,0.007-89.362,8.033-102.553,10.956
		c-12.363-10.477-24.432-19.184-35.333-26.438C225.898,109.899,238.634,109.444,251.695,109.444z M117.904,206.611
		c-16.862-5.758-30.248-12.614-38.89-19.64c-4.321-3.509-7.44-7.017-9.39-10.282c-1.95-3.29-2.778-6.238-2.778-9.195
		c0-2.964,0.828-5.913,2.778-9.202c3.265-5.539,10.072-11.737,20.062-17.488c24.708,16.358,57.636,42.578,84.359,79.047
		C152.878,216.594,133.84,212.086,117.904,206.611z M195.521,222.645c-26.982-41.091-61.665-70.722-89.118-89.915
		c9.259-3.818,19.899-7.326,31.726-10.364c29.322,18.666,73.264,52.779,103.397,103.073
		C225.574,225.163,210.158,224.188,195.521,222.645z M260.029,225.439c-28.022-50.618-68.829-86.048-100.165-107.873
		c8.837-1.682,18.112-3.119,27.778-4.305c30.752,18.763,80.964,52.893,112.787,110.098
		C287.466,224.538,273.934,225.236,260.029,225.439z M412.712,194.761c-15.79,8.919-38.89,16.74-66.57,22.174
		c-9.033,1.779-18.617,3.29-28.558,4.549c-6.222-11.924-13.159-22.929-20.566-33.058c13.727-1.592,39.069-3.98,67.692-3.972
		c18.697-0.008,38.711,1.113,57.734,3.988C419.6,190.578,416.384,192.698,412.712,194.761z M435.033,174.22
		c-23.165-4.386-47.776-5.84-70.324-5.84c-38.906,0-71.622,4.248-79.274,5.312c-7.05-8.374-14.344-16.058-21.702-23.108
		c18.177-3.411,50.602-8.276,87.754-8.268c23.993-0.008,49.904,2.038,75.18,7.699c3.136,2.835,5.524,5.637,7.083,8.277
		c1.966,3.29,2.778,6.238,2.794,9.202C436.527,169.688,436.072,171.889,435.033,174.22z" style="fill: rgb(75, 75, 75);"></path>
</g>
</svg>
